<?xml version="1.0" encoding="UTF-8"?>
<svg width="969px" height="625px" viewBox="0 0 969 625" version="1.1" xmlns="http://www.w3.org/2000/svg" xmlns:xlink="http://www.w3.org/1999/xlink">
    <title>CQ-logo</title>
    <defs>
        <linearGradient x1="50%" y1="6.60224377%" x2="70.8840227%" y2="93.1501373%" id="linearGradient-1">
            <stop stop-color="#339933" offset="0%"></stop>
            <stop stop-color="#267226" offset="100%"></stop>
        </linearGradient>
        <linearGradient x1="50%" y1="0%" x2="50%" y2="100%" id="linearGradient-2">
            <stop stop-color="#1E91E2" offset="0%"></stop>
            <stop stop-color="#0D5086" offset="100%"></stop>
        </linearGradient>
        <path d="M607.95808,111.747157 C625.999806,101.417614 625.999806,101.417614 644.148769,111.747157 C662.297733,122.0767 777.002646,187.825433 788.907186,195.043523 C807.427433,206.272921 807.983041,206.609803 807.999709,229.488995 L808,386.711467 C807.988998,416.692698 807.438899,417.008145 779.933928,432.780526 C763.542901,442.179756 718.709167,466.485087 652.956258,505.85588 C625.999806,521.996563 625.999806,521.996563 598.856171,506.162536 C582.724664,496.752347 491.916756,443.845204 467.958071,430.265732 C444.718147,417.093644 444.020949,416.698481 444.000033,387.619973 L444,229.354413 C444.019836,205.989183 444.68103,205.609355 466.720827,192.948438 C480.948304,184.775363 526.692608,158.27459 607.95808,111.747157 Z M613.730487,184.688693 C562.381544,214.023849 533.477242,230.732363 524.487373,235.885418 C510.417591,243.950315 510.136195,244.111613 510.130567,259.29934 L510.130452,356.870444 C510.130452,376.950232 510.130452,376.950232 525.269147,385.511975 C540.407841,394.073718 597.786333,427.431227 607.979294,433.364272 C625.130452,443.347493 625.130452,443.347493 642.163336,433.170928 C683.710408,408.347974 712.039351,393.023667 722.396295,387.097532 C739.598428,377.254651 740.114492,376.959365 740.129974,358.624226 L740.12968,258.482302 C740.11115,244.493684 739.647882,244.213402 728.066198,237.206351 C720.544116,232.655406 648.065903,191.201383 636.598178,184.688693 C625.130452,178.176004 625.130452,178.176004 613.730487,184.688693 Z" id="path-3"></path>
        <linearGradient x1="50%" y1="0%" x2="50%" y2="100%" id="linearGradient-4">
            <stop stop-color="#105B95" offset="0%"></stop>
            <stop stop-color="#0D5086" offset="100%"></stop>
        </linearGradient>
    </defs>
    <g id="CQ-logo" stroke="none" stroke-width="1" fill="none" fill-rule="evenodd">
        <path d="M360.613985,111.747157 C372.886734,118.750946 429.430656,151.232665 468.269688,173.672585 C460.305583,178.27656 454.472219,181.651157 450.700452,183.82368 C432.996537,194.021066 417.111707,203.780284 403.047403,213.190761 L403.057774,213.189273 C381.91328,201.034226 359.634933,188.26953 353.702759,184.891535 C342.249242,178.369488 342.249242,178.369488 330.863401,184.891535 C279.578077,214.268839 250.709588,231.00136 241.730857,236.161819 C227.960987,244.07595 227.414324,244.390141 227.392621,258.710209 L227.392132,359.076935 C227.405332,377.437032 227.845322,377.686537 242.511662,386.00336 C257.6316,394.577404 314.939001,427.982841 325.119334,433.924411 C342.249242,443.921975 342.249242,443.921975 359.261022,433.730789 C375.580648,423.954249 389.85831,415.64901 401.805184,408.808952 C416.511875,418.624247 433.255843,428.815014 452.029767,439.484339 C457.583059,442.640305 462.907259,445.667663 468.011908,448.571741 L468.003056,448.565401 C445.083989,461.465425 411.551299,480.548142 369.397941,505.85588 C342.513514,521.996563 342.513514,521.996563 315.442406,506.162536 C299.354001,496.752347 208.788725,443.845204 184.894057,430.265732 C161.948007,417.225365 161.037048,416.707662 161.000883,388.483764 L161,229.354413 C161.019783,205.989183 161.67921,205.609355 183.660118,192.948438 C197.849581,184.775363 243.471659,158.27459 324.519995,111.747157 C342.513514,101.417614 342.513514,101.417614 360.613985,111.747157 Z" id="C" fill="url(#linearGradient-1)"></path>
        <g id="Q">
            <use fill="#1C8FE0" xlink:href="#path-3"></use>
            <use fill="url(#linearGradient-2)" xlink:href="#path-3"></use>
        </g>
        <polygon id="Rectangle-Copy-2" fill="url(#linearGradient-4)" points="741.390091 443 808 482.096629 741.390091 521 676 482.319502"></polygon>
        <polygon id="Rectangle-Copy-2" fill="#1E8FDF" points="625.390091 232 692 271.096629 625.390091 310 560 271.319502"></polygon>
        <polygon id="Rectangle-Copy-2" fill="#0F5790" points="626 312 693 273 693 351.096629 626 390"></polygon>
        <polygon id="Rectangle-Copy-3" fill="#1E90E1" points="624 312 624 390 559 351.319502 559 273"></polygon>
    </g>
</svg>
